<svg width="150" height="43" viewBox="0 0 150 43" fill="none" xmlns="http://www.w3.org/2000/svg">
<path d="M24.1926 41.4C20.3526 41.4 17.3392 40.32 15.1526 38.16C12.9926 36 11.9126 32.88 11.9126 28.8V13H17.1126V28.6C17.1126 31.48 17.7259 33.5733 18.9526 34.88C20.2059 36.1867 21.9659 36.84 24.2326 36.84C26.4992 36.84 28.2459 36.1867 29.4726 34.88C30.6992 33.5733 31.3126 31.48 31.3126 28.6V13H36.4326V28.8C36.4326 32.88 35.3392 36 33.1526 38.16C30.9926 40.32 28.0059 41.4 24.1926 41.4ZM53.1551 22.28H47.6351V16.96H44.5151V22.28H40.4351V24.92H44.5151V35.2C44.5151 39.08 45.2351 41.48 49.6751 41.48C50.8351 41.48 52.2351 41.28 53.3151 40.8L53.1951 37.96C52.3551 38.4 51.3551 38.6 50.4351 38.6C47.6751 38.6 47.6351 36.68 47.6351 34.28V24.92H53.1551V22.28ZM56.9776 41H60.0976V31.88C60.0976 27.6 61.7776 24.92 65.5776 24.92C66.1376 24.92 66.7376 25 67.2576 25.16L67.4576 22C67.0176 21.84 66.5776 21.8 66.1776 21.8C63.0976 21.8 60.7776 23.52 59.9376 25.36H59.8576C59.8576 24.32 59.7776 23.28 59.7776 22.28H56.8176C56.8176 23.52 56.9776 25 56.9776 26.72V41ZM72.7601 26.72C74.2401 25.36 76.3201 24.68 78.3201 24.68C81.2401 24.68 82.9601 26.08 82.9601 28.8V29.36H81.7601C77.1601 29.36 69.9601 29.72 69.9601 35.92C69.9601 39.56 73.1201 41.48 76.9201 41.48C79.7601 41.48 81.8401 40.12 83.0801 38.2H83.1601C83.1601 39 83.1601 40.16 83.3601 41H86.3601C86.2001 40.04 86.0801 38.84 86.0801 37.76V29.72C86.0801 24.44 83.7601 21.8 78.2401 21.8C75.5201 21.8 72.7201 22.72 70.8001 24.68L72.7601 26.72ZM82.9601 32V33.2C82.8801 36.24 81.0401 38.84 77.4401 38.84C75.0801 38.84 73.3201 37.96 73.3201 35.6C73.3201 33.08 75.8801 32 79.8401 32H82.9601ZM107.702 22.28H104.342L98.7823 36.96H98.7023L92.8623 22.28H89.2223L96.8623 41H100.302L107.702 22.28ZM125.439 35.76C123.959 37.64 122.159 38.6 119.479 38.6C116.079 38.6 113.599 35.84 113.359 32.6H128.479V31.6C128.479 25.4 124.879 21.8 119.599 21.8C114.079 21.8 109.999 25.84 109.999 31.64C109.999 37.08 113.599 41.48 119.479 41.48C122.959 41.48 125.599 40.44 127.799 37.6L125.439 35.76ZM113.359 29.96C113.759 26.8 116.039 24.68 119.479 24.68C122.919 24.68 124.999 26.8 125.119 29.96H113.359ZM133.586 41H136.706V10.76H133.586V41Z" fill="white"/>
</svg>
